<?xml version="1.0" encoding="UTF-8" standalone="no"?>
<svg
   version="1.1"
   x="0px"
   y="0px"
   viewBox="0 0 90 90"
   enable-background="new 0 0 100 100"
   xml:space="preserve"
   id="svg3"
   width="90"
   height="90"
   xmlns="http://www.w3.org/2000/svg"><defs
     id="1" /><path
     d="m 32.6,9.6 -23,23 -7,-7 C 1,23.9 0,21.6 0,19.2 0,16.8 1,14.3 2.6,12.6 l 10,-10 C 14.3,1 16.8,0 19.2,0 c 2.5,0 4.7,1 6.4,2.6 z M 90,90 81.4,59.3 C 81.2,58.5 80.7,57.8 80.2,57.3 38,15.1 38,15.1 35.8,12.9 l -6.4,6.3 47.9,48 2.8,-2.8 L 83.6,77 77,83.6 64.3,80.2 73.6,70.8 25.7,22.8 12.9,35.9 57.3,80.2 c 0.5,0.5 1.1,1 2,1.2 z"
     id="2" /></svg>
