<?xml version="1.0" encoding="UTF-8" standalone="no"?>
<svg
   version="1.1"
   x="0px"
   y="0px"
   viewBox="0 0 89.900002 90.099998"
   enable-background="new 0 0 100 100"
   xml:space="preserve"
   id="svg4"
   width="89.900002"
   height="90.099998"
   xmlns="http://www.w3.org/2000/svg"
   xmlns:svg="http://www.w3.org/2000/svg"><defs
     id="defs8" /><path
     d="m 77.6,34.8 c -0.5,-1.8 -1.3,-3.7 -2.3,-5.7 1.9,-2.6 4.1,-5.2 6,-8.1 0.6,-0.8 0.6,-1.7 0,-2.6 C 78.9,14.9 74.9,11.3 71.6,8.5 70.8,7.7 69.7,7.7 68.8,8.4 l -8.4,6.2 C 58.8,13.8 56.9,13.1 55.2,12.4 L 53.6,1.8 C 53.5,0.7 52.7,0 51.5,0 h -13 c -1.2,0 -2,0.7 -2.2,1.7 -0.8,3.4 -1.2,7.3 -1.6,10.7 -1.8,0.6 -3.6,1.3 -5.2,2.3 L 21.4,8.5 C 20.9,8.1 20.2,7.8 19.8,7.8 c -2,0 -9.8,8.7 -11.3,10.6 -0.8,1 -0.7,1.6 0.1,2.7 2.1,2.8 4.2,5.4 6.2,8.1 -0.9,1.9 -1.6,3.4 -2.2,5.4 l -11,1.6 C 0.7,36.4 0,37.5 0,38.5 v 12.9 c 0,1 0.7,1.9 1.7,2.1 l 10.6,1.7 c 0.5,1.8 1.4,3.7 2.3,5.6 -1.9,2.7 -4,5.2 -6,8.1 -0.6,0.9 -0.5,1.8 0,2.6 2.5,3.5 6.4,7.1 9.7,10 0.9,0.8 1.9,0.8 2.8,0.2 l 8.4,-6.2 c 1.7,0.8 3.5,1.5 5.2,2.1 l 1.6,10.7 c 0.1,0.9 1,1.8 2.2,1.8 h 13 c 1.2,0 1.8,-0.7 2.1,-1.7 0.9,-3.4 1.3,-7.3 1.7,-10.7 1.8,-0.6 3.6,-1.4 5.3,-2.2 l 8.1,6.3 c 0.5,0.4 1.1,0.5 1.6,0.5 1.9,0 9.8,-8.8 11.3,-10.7 0.6,-0.8 0.5,-1.6 -0.2,-2.6 -2.1,-2.9 -4.2,-5.5 -6.2,-8.4 0.9,-1.6 1.6,-3.2 2.3,-5.2 l 10.7,-1.6 c 1,-0.1 1.7,-1.2 1.7,-2 V 38.6 c 0,-0.9 -0.7,-1.9 -1.7,-2.2 z M 44.9,60 C 36.7,60 30,53.3 30,45.1 30,36.7 36.7,30 44.9,30 c 8.3,0 15,6.7 15,15.1 0,8.2 -6.7,14.9 -15,14.9 z"
     id="path2" /></svg>
